<?xml version="1.0" encoding="utf-8"?>
<svg width="320" height="320" viewBox="0 0 320 320" fill="none" xmlns="http://www.w3.org/2000/svg">
  <rect width="320" height="320" rx="32" fill="#FFD600"/>
  <g>
    <rect x="60" y="120" width="200" height="100" rx="16" fill="#fff"/>
    <rect x="80" y="140" width="40" height="60" rx="8" fill="#FF7043"/>
    <rect x="130" y="140" width="40" height="60" rx="8" fill="#42A5F5"/>
    <rect x="180" y="140" width="40" height="60" rx="8" fill="#66BB6A"/>
    <circle cx="100" cy="210" r="10" fill="#FFD600"/>
    <circle cx="150" cy="210" r="10" fill="#FFD600"/>
    <circle cx="200" cy="210" r="10" fill="#FFD600"/>
    <rect x="110" y="110" width="100" height="20" rx="6" fill="#FFD600"/>
    <rect x="120" y="90" width="80" height="15" rx="5" fill="#FF7043"/>
    <ellipse cx="160" cy="260" rx="80" ry="12" fill="#FFECB3"/>
  </g>
  <g>
    <circle cx="60" cy="60" r="16" fill="#42A5F5"/>
    <circle cx="260" cy="60" r="10" fill="#66BB6A"/>
    <circle cx="260" cy="260" r="8" fill="#FF7043"/>
    <circle cx="60" cy="260" r="6" fill="#FFD600"/>
  </g>
</svg> 